<?xml version="1.0" encoding="UTF-8"?>
<svg version="1.1" xmlns="http://www.w3.org/2000/svg" width="500" height="500">
<path d="M0 0 C133.32 0 266.64 0 404 0 C402.91602094 14.63371726 401.83014812 28.9148227 400.20556641 43.43676758 C398.78834651 56.27873465 397.79013518 69.15598965 396.74331665 82.03231812 C395.61428695 95.90304275 394.38073873 109.75145412 392.93798828 123.59301758 C392.16493287 131.08016223 391.56297949 138.5477952 391.2109375 146.06640625 C391 149 391 149 390.5078125 151.37109375 C389.79433213 155.06472674 389.67499644 158.74729859 389.5 162.5 C389.43052988 163.98974805 389.3576974 165.47934369 389.28125 166.96875 C389.25095703 167.62294922 389.22066406 168.27714844 389.18945312 168.95117188 C389 171 389 171 388.52075195 173.31445312 C387.8948156 176.54244183 387.63840235 179.72106866 387.38671875 183 C387.33243713 183.69195465 387.27815552 184.3839093 387.222229 185.09683228 C387.10401009 186.60427931 386.98700212 188.11182169 386.87106323 189.6194458 C386.55219283 193.75474164 386.22163341 197.889098 385.890625 202.0234375 C385.82040634 202.90123871 385.75018768 203.77903992 385.67784119 204.68344116 C384.82010046 215.33550094 383.88228278 225.9803655 382.9375 236.625 C382.85559418 237.55505859 382.77368835 238.48511719 382.68930054 239.44335938 C381.77432147 249.82391226 380.81150657 260.19507305 379.66197205 270.55264282 C378.96659298 276.91923446 378.56783023 283.28435418 378.24609375 289.6796875 C378 293 378 293 377.50390625 295.41796875 C376.79039078 299.07404414 376.6743288 302.72171397 376.5 306.4375 C376.43029428 307.91551951 376.35743363 309.39339398 376.28125 310.87109375 C376.25095703 311.52005615 376.22066406 312.16901855 376.18945312 312.83764648 C376 315 376 315 375.52514648 317.76391602 C374.92402414 321.46818223 374.60189643 325.16785635 374.31640625 328.90625 C374.25670151 329.659133 374.19699677 330.41201599 374.13548279 331.18771362 C374.00828622 332.79357669 373.88218026 334.39952646 373.75708008 336.0055542 C373.42871148 340.21512019 373.09092906 344.42393201 372.75390625 348.6328125 C372.68797272 349.45834625 372.62203918 350.28388 372.55410767 351.13442993 C370.95399832 371.11178883 368.94661185 391.05405532 367 411 C360.76279592 413.4860554 354.50932729 415.25010795 348 416.875 C339.88882895 418.93861721 331.90139683 421.18042737 323.9609375 423.82421875 C320.63112193 424.87621228 317.26336726 425.63597013 313.85546875 426.39453125 C307.096833 427.92128476 300.53674549 429.89898348 293.9375 432 C286.6243466 434.31997472 279.32964017 436.47355045 271.87329102 438.28515625 C267.38043695 439.40292978 262.94369318 440.70275196 258.5 442 C251.92053923 443.90564185 245.34904299 445.73905532 238.66796875 447.26171875 C235.79760467 448.00907038 235.79760467 448.00907038 232.32421875 449.41796875 C227.52729981 451.25711707 222.61629805 452.43764275 217.625 453.625 C215.84585266 454.05260623 214.06718046 454.48219577 212.2890625 454.9140625 C211.51256348 455.0992041 210.73606445 455.2843457 209.93603516 455.47509766 C207.93933398 455.94800745 207.93933398 455.94800745 206 457 C198.57536558 457.51076747 192.70424634 456.00631403 185.6875 453.6875 C183.63349359 453.0343127 181.57881263 452.38324253 179.5234375 451.734375 C178.55631836 451.42693359 177.58919922 451.11949219 176.59277344 450.80273438 C173.68819998 449.90346531 170.77230109 449.13292604 167.8125 448.4375 C162.76540975 447.24270819 157.83264102 445.7656286 152.875 444.25 C144.95810356 441.83358264 137.00013907 439.62384784 129 437.5 C121.29323748 435.45276885 113.62409878 433.33680775 106 431 C97.3924799 428.36551067 88.72378246 426.00446346 80.02612305 423.68676758 C72.10600656 421.57446368 64.20430485 419.40322438 56.3125 417.1875 C55.27971924 416.8975415 54.24693848 416.60758301 53.18286133 416.30883789 C51.28695675 415.7754821 49.39208906 415.23841948 47.49853516 414.69677734 C45.93222613 414.25997395 44.359411 413.8452391 42.77880859 413.46337891 C40.85546875 412.98828125 40.85546875 412.98828125 38 412 C37.12161555 409.36484666 36.78123341 407.42772214 36.56689453 404.69750977 C36.49646439 403.82614883 36.42603424 402.9547879 36.35346985 402.05702209 C36.28065292 401.11136887 36.207836 400.16571564 36.1328125 399.19140625 C35.96918955 397.15689842 35.80553262 395.12239331 35.6418457 393.08789062 C35.55746246 392.02159424 35.47307922 390.95529785 35.38613892 389.85668945 C34.11141263 373.77639797 32.75249658 357.72404286 30.93847656 341.69506836 C30.13175377 334.50066027 29.54765418 327.33295401 29.2109375 320.1015625 C29.05828302 317.0543459 29.05828302 317.0543459 28.52734375 314.29858398 C27.93301713 310.58101593 27.62137721 306.87246519 27.3515625 303.12109375 C27.23377802 301.55899043 27.11585224 299.99689776 26.99780273 298.43481445 C26.93712616 297.62001617 26.87644958 296.8052179 26.81393433 295.96572876 C25.77479641 282.06048229 24.56555225 268.19670189 23.05957031 254.33349609 C22.03859284 244.78586721 21.28839226 235.22985373 20.64624023 225.6496582 C20.30871899 220.69795138 19.84796337 215.89316565 19 211 C18.75625971 207.61133289 18.56463884 204.22668567 18.39453125 200.83398438 C18.23911924 198.01245245 18.05479531 195.27397653 17.5 192.5 C16.80865313 189.04326564 16.67610771 185.57487054 16.5 182.0625 C16.23193142 176.6404908 16.23193142 176.6404908 15.52514648 171.26123047 C14.91749767 167.48764942 14.59974397 163.71828794 14.31640625 159.91015625 C14.25665619 159.13717697 14.19690613 158.36419769 14.13534546 157.5677948 C14.0080639 155.91877565 13.88191341 154.26966887 13.75680542 152.6204834 C13.42979984 148.31553478 13.0931616 144.01133652 12.7578125 139.70703125 C12.69208542 138.8606308 12.62635834 138.01423035 12.55863953 137.1421814 C12.04273511 130.50933289 11.50780704 123.87841866 10.9375 117.25 C10.87054932 116.45215088 10.80359863 115.65430176 10.73461914 114.83227539 C10.32566351 110.13819693 9.82956817 105.45830636 9.29397583 100.77731323 C8.25423303 91.67204558 7.43331449 82.56757529 6.73849487 73.43002319 C5.73765826 60.32196175 4.60181611 47.24660212 3.09008789 34.18603516 C1.79223513 22.79919642 0.95392499 11.44709989 0 0 Z " fill="#D3B830" transform="translate(48,14)"/>
<path d="M0 0 C54.45 0 108.9 0 165 0 C163.81724475 17.14995117 162.62166191 34.26162823 161.0625 51.375 C160.88582423 53.34104989 160.70931392 55.30711466 160.53295898 57.27319336 C159.5930674 67.70832557 158.60312479 78.13694004 157.5625 88.5625 C155.93872319 104.86562487 154.64474552 121.19614632 153.30505371 137.52456665 C151.58904786 158.39585416 149.71603711 179.2479183 147.69970703 200.09228516 C147.50405091 202.11879765 147.30857217 204.14532728 147.11328125 206.171875 C146.97261986 207.63107361 146.97261986 207.63107361 146.82911682 209.11975098 C146.04058718 217.38853073 145.34085884 225.66372817 144.67573547 233.94329834 C144.2246873 239.51647993 143.69160865 245.06902831 143.0625 250.625 C142.06224343 259.69235214 141.3796481 268.78027738 140.6875 277.875 C138.80395667 302.61424833 136.38505844 327.30498009 134 352 C111.27567239 358.38642776 88.53394883 364.70430932 65.75 370.875 C64.28953247 371.27106949 64.28953247 371.27106949 62.79956055 371.67514038 C54.13855264 374.02264554 45.47640335 376.36348627 36.78979492 378.61474609 C35.24953644 379.01392746 35.24953644 379.01392746 33.67816162 379.4211731 C31.72852188 379.92501192 29.77832565 380.42670466 27.82745361 380.92575073 C20.82072005 382.73356944 13.94644866 384.83144432 7.08203125 387.1171875 C4 388 4 388 0 388 C0 259.96 0 131.92 0 0 Z " fill="#FBD73D" transform="translate(250,51)"/>
<path d="M0 0 C42.24 0 84.48 0 128 0 C128 16.34693311 127.05245279 32.68698172 126 49 C97.95 49.33 69.9 49.66 41 50 C41 72.11 41 94.22 41 117 C49.91 116.01 49.91 116.01 59 115 C63.93762114 114.69465009 68.86597576 114.40032058 73.80596924 114.16546631 C84.71280955 113.63859749 95.52142458 113.01970035 106.26928711 110.96508789 C110.95757899 110.07117539 115.24976869 109.88362462 120 110 C119.56220975 120.41479951 118.98365194 130.80147927 118.0859375 141.1875 C117.90651725 143.30011145 117.72732488 145.41274226 117.54833984 147.52539062 C117.4571991 148.59700439 117.36605835 149.66861816 117.27215576 150.77270508 C116.92193511 154.92571406 116.58361505 159.07963548 116.24697876 163.23376465 C115.91723117 167.30253942 115.58360849 171.37099336 115.25 175.43945312 C115.0821711 177.49404602 114.91552037 179.54873546 114.75 181.60351562 C113.16129925 201.30092253 113.16129925 201.30092253 111.9140625 210.6875 C111.04322166 217.2963469 110.58896686 223.84028134 110.375 230.5 C110.33632813 231.52480469 110.29765625 232.54960937 110.2578125 233.60546875 C110.1656745 236.07016031 110.07970811 238.53488089 110 241 C102.93181029 243.94507904 95.620586 245.68101281 88.19866943 247.46887207 C84.56239059 248.34728027 80.93185667 249.24880659 77.30078125 250.1484375 C76.57156967 250.3287854 75.84235809 250.5091333 75.09104919 250.69494629 C62.04871491 253.92201857 49.03703152 257.16825974 36.14526367 260.96118164 C30.01122413 262.75162044 23.83995243 264.3277839 17.625 265.8125 C16.33057983 266.1233252 16.33057983 266.1233252 15.01000977 266.44042969 C10.31465087 267.54085369 5.8116328 268.31262389 1 269 C1 253.49 1 237.98 1 222 C3.97 221.01 6.94 220.02 10 219 C10.84691406 218.70996094 11.69382812 218.41992188 12.56640625 218.12109375 C13.55447266 217.78271484 13.55447266 217.78271484 14.5625 217.4375 C15.22378906 217.20933594 15.88507813 216.98117187 16.56640625 216.74609375 C19.161786 215.95039948 21.77905752 215.29213335 24.41479492 214.64477539 C27.68654557 213.82876883 30.94826053 212.9765589 34.2109375 212.125 C35.55205951 211.77595013 36.89320582 211.42699359 38.234375 211.078125 C40.30343281 210.53981762 42.37226564 210.00071623 44.44042969 209.45898438 C55.90457063 206.45790036 67.32486155 204.12275245 79 202 C79 189.13 79 176.26 79 163 C70.3375 164.3921875 70.3375 164.3921875 61.5 165.8125 C59.71400391 166.09843018 57.92800781 166.38436035 56.08789062 166.67895508 C47.21685238 168.10722621 38.38080301 169.65407192 29.5546875 171.3371582 C24.80031528 172.22370495 20.03437071 172.98368984 15.25 173.6875 C14.40179688 173.81705078 13.55359375 173.94660156 12.6796875 174.08007812 C9.03526635 174.62329232 5.7033632 175 2 175 C0.85428094 149.42563505 0.68761362 123.8418827 0.46777344 98.24639893 C0.42774923 93.70647587 0.38359987 89.16659717 0.33933926 84.62671375 C0.29569654 80.11200879 0.25417109 75.59728609 0.21324348 71.08255577 C0.19418582 68.993248 0.17468529 66.9039442 0.15463066 64.81464577 C-0.04952913 43.20877726 0 21.60854584 0 0 Z " fill="#ECECEA" transform="translate(266,102)"/>
<path d="M0 0 C13.2 0 26.4 0 40 0 C40 88.77 40 177.54 40 269 C29.88471212 267.87607912 29.88471212 267.87607912 26.3359375 266.80078125 C25.53639648 266.56431885 24.73685547 266.32785645 23.91308594 266.08422852 C23.07551758 265.82955811 22.23794922 265.5748877 21.375 265.3125 C13.86371979 263.09617729 6.33599392 261.00784447 -1.25 259.0625 C-14.92465205 255.54022345 -28.5372398 251.77546348 -42.08984375 247.80859375 C-48.97571616 245.79725645 -55.87497164 244.02662635 -62.87890625 242.48168945 C-68.11383261 241.30167517 -72.8359925 239.72133583 -78 238 C-78 222.16 -78 206.32 -78 190 C-65.64614146 192.2461561 -65.64614146 192.2461561 -61.51953125 193.515625 C-60.13181519 193.9338855 -60.13181519 193.9338855 -58.71606445 194.3605957 C-57.75788818 194.65409912 -56.79971191 194.94760254 -55.8125 195.25 C-46.18982879 198.13611691 -36.52390891 200.70257647 -26.75512695 203.04589844 C-25.81113037 203.27438477 -24.86713379 203.50287109 -23.89453125 203.73828125 C-23.06800049 203.93462158 -22.24146973 204.13096191 -21.38989258 204.33325195 C-18.83658471 205.04559068 -16.45391273 206.00249313 -14 207 C-11.47644616 207.55992566 -8.94923873 207.99797421 -6.40234375 208.4375 C-4 209 -4 209 0 211 C0 141.37 0 71.74 0 0 Z " fill="#EAE9E7" transform="translate(195,102)"/>
<path d="M0 0 C42.24 0 84.48 0 128 0 C128 16.34693311 127.05245279 32.68698172 126 49 C97.95 49.33 69.9 49.66 41 50 C41 72.11 41 94.22 41 117 C49.91 116.01 49.91 116.01 59 115 C66.453125 114.859375 66.453125 114.859375 70 115 C70 115.33 70 115.66 70 116 C66.12577792 116.50615271 62.25051183 117.00382721 58.375 117.5 C57.28058594 117.64308594 56.18617188 117.78617187 55.05859375 117.93359375 C53.99511719 118.06894531 52.93164062 118.20429688 51.8359375 118.34375 C50.37486572 118.53227539 50.37486572 118.53227539 48.88427734 118.72460938 C45.9348428 119.00622121 42.96284818 119 40 119 C40 95.24 40 71.48 40 47 C67.72 47 95.44 47 124 47 C124.33 36.77 124.66 26.54 125 16 C125.33 15.34 125.66 14.68 126 14 C126.33 10.04 126.66 6.08 127 2 C85.42 2 43.84 2 1 2 C1 4.64 1 7.28 1 10 C1.66 10 2.32 10 3 10 C3 64.12 3 118.24 3 174 C3.66 173.67 4.32 173.34 5 173 C7.3329866 172.95977609 9.66706666 172.95679753 12 173 C12 173.33 12 173.66 12 174 C8.7 174.33 5.4 174.66 2 175 C0.88009135 149.42348503 0.68762692 123.84343133 0.46777344 98.24639893 C0.42774923 93.70647587 0.38359987 89.16659717 0.33933926 84.62671375 C0.29569654 80.11200879 0.25417109 75.59728609 0.21324348 71.08255577 C0.19418582 68.993248 0.17468529 66.9039442 0.15463066 64.81464577 C-0.04952913 43.20877726 0 21.60854584 0 0 Z " fill="#F4E6AD" transform="translate(266,102)"/>
<path d="M0 0 C133.32 0 266.64 0 404 0 C401.69932432 31.05912162 401.69932432 31.05912162 400.375 42.6875 C400.2409375 43.90115234 400.106875 45.11480469 399.96875 46.36523438 C399.65015118 49.24400224 399.32737095 52.12221913 399 55 C398.67 55 398.34 55 398 55 C397.7045721 27.5908558 397.7045721 27.5908558 400 23 C400.33 16.07 400.66 9.14 401 2 C269.66 2 138.32 2 3 2 C3 9.26 3 16.52 3 24 C2.67 24 2.34 24 2 24 C1.34 16.08 0.68 8.16 0 0 Z " fill="#E2D079" transform="translate(48,14)"/>
<path d="M0 0 C0.66 0 1.32 0 2 0 C2 69.63 2 139.26 2 211 C0.68 210.67 -0.64 210.34 -2 210 C-4.24920161 209.47572958 -6.49926963 208.95516799 -8.75 208.4375 C-10.50570312 208.03337891 -10.50570312 208.03337891 -12.296875 207.62109375 C-13.63492188 207.31365234 -13.63492188 207.31365234 -15 207 C-15 206.67 -15 206.34 -15 206 C-9.06678378 205.79181697 -6.07670404 206.26379884 0 208 C0 139.36 0 70.72 0 0 Z " fill="#D0BB5C" transform="translate(193,102)"/>
<path d="M0 0 C5.13633153 5.13633153 4.37495707 14.37648964 4.5625 21.1875 C4.62272688 23.1186044 4.68641203 25.04960469 4.75390625 26.98046875 C4.77783447 27.82504639 4.8017627 28.66962402 4.82641602 29.53979492 C5.00692344 32.09812593 5.47556006 34.49201959 6 37 C6.2942654 40.60475115 6.50503021 44.20997467 6.71875 47.8203125 C6.8781985 51.02028093 6.8781985 51.02028093 8 54 C8.13689242 55.76019658 8.2244736 57.52446397 8.28125 59.2890625 C8.31863281 60.31257813 8.35601562 61.33609375 8.39453125 62.390625 C8.46509824 64.55467922 8.53540891 66.71874181 8.60546875 68.8828125 C8.64285156 69.90375 8.68023437 70.9246875 8.71875 71.9765625 C8.74904297 72.91580566 8.77933594 73.85504883 8.81054688 74.82275391 C8.76287195 76.97725449 8.76287195 76.97725449 10 78 C10.08783542 80.21855264 10.10694609 82.43988496 10.09765625 84.66015625 C10.0962413 85.32462265 10.09482635 85.98908905 10.09336853 86.6736908 C10.08775518 88.80333899 10.07520054 90.93288339 10.0625 93.0625 C10.05748671 94.50325369 10.05292351 95.94400903 10.04882812 97.38476562 C10.03778145 100.92321102 10.02050792 104.46159539 10 108 C9.67 108 9.34 108 9 108 C8.91435791 106.94087402 8.82871582 105.88174805 8.74047852 104.79052734 C8.42060511 100.84305096 8.09739163 96.89585382 7.77319336 92.94873047 C7.63361655 91.24372618 7.49493308 89.53864851 7.35717773 87.83349609 C7.15846537 85.37577572 6.95649079 82.91834137 6.75390625 80.4609375 C6.6934462 79.70444916 6.63298615 78.94796082 6.57069397 78.16854858 C6.31308288 75.07526929 6.00823034 72.04918682 5.49560547 68.9855957 C4.87727511 65.26068832 4.59154083 61.53156402 4.31640625 57.76953125 C4.19313933 56.15388814 4.0698474 54.53824693 3.9465332 52.92260742 C3.88374176 52.0866806 3.82095032 51.25075378 3.7562561 50.38949585 C2.43736538 32.47784476 2.43736538 32.47784476 0.55883789 14.6184082 C-0.0194166 9.72534192 -0.08269733 4.91731055 0 0 Z " fill="#DAC76B" transform="translate(71,259)"/>
<path d="M0 0 C0.33 0 0.66 0 1 0 C1.18175781 1.64548828 1.18175781 1.64548828 1.3671875 3.32421875 C1.53609363 4.77868823 1.70538481 6.23311304 1.875 7.6875 C1.95363281 8.40873047 2.03226563 9.12996094 2.11328125 9.87304688 C2.19707031 10.57880859 2.28085937 11.28457031 2.3671875 12.01171875 C2.44050293 12.65584717 2.51381836 13.29997559 2.58935547 13.96362305 C2.95298051 16.11044155 2.95298051 16.11044155 4.01586914 18.42675781 C5.06126979 21.16020431 5.29498868 23.24624663 5.37890625 26.16015625 C5.41306641 27.11857422 5.44722656 28.07699219 5.48242188 29.06445312 C5.50884766 30.05380859 5.53527344 31.04316406 5.5625 32.0625 C5.62258951 34.03266882 5.68625231 36.00273268 5.75390625 37.97265625 C5.77783447 38.84156494 5.8017627 39.71047363 5.82641602 40.60571289 C5.9903199 42.86648003 6.43611757 44.8129768 7 47 C7.14033578 48.439735 7.24416857 49.88337149 7.31640625 51.328125 C7.35830078 52.12734375 7.40019531 52.9265625 7.44335938 53.75 C7.48267578 54.575 7.52199219 55.4 7.5625 56.25 C7.60568359 57.09046875 7.64886719 57.9309375 7.69335938 58.796875 C7.79908543 60.86440671 7.90001295 62.93218281 8 65 C8.33 65 8.66 65 9 65 C9 75.56 9 86.12 9 97 C8.67 97 8.34 97 8 97 C4.92686049 68.4831156 4.92686049 68.4831156 4.2421875 55.65234375 C3.96959041 51.54140372 3.53625264 47.46674321 3.0625 43.375 C-0.48117631 12.67097616 -0.48117631 12.67097616 0 0 Z " fill="#DDCA71" transform="translate(54,69)"/>
<path d="M0 0 C0.33 0 0.66 0 1 0 C1.02892385 4.12498538 1.04677267 8.24994485 1.0625 12.375 C1.07087891 13.550625 1.07925781 14.72625 1.08789062 15.9375 C1.09111328 17.05898438 1.09433594 18.18046875 1.09765625 19.3359375 C1.10289307 20.37282715 1.10812988 21.4097168 1.11352539 22.47802734 C1 25 1 25 0 27 C-0.12877855 28.52541906 -0.20223403 30.05572067 -0.24609375 31.5859375 C-0.27896484 32.51792969 -0.31183594 33.44992187 -0.34570312 34.41015625 C-0.40568907 36.34757471 -0.46309197 38.28507532 -0.51757812 40.22265625 C-0.69714522 45.18954988 -1.09961282 49.95428851 -1.98828125 54.84765625 C-2.77910096 59.23943444 -3.21033939 63.5147506 -3.421875 67.97265625 C-3.47859375 69.13861328 -3.5353125 70.30457031 -3.59375 71.50585938 C-3.69943076 73.91141758 -3.78749175 76.31780413 -3.859375 78.72460938 C-4.03098173 81.92614741 -4.23241345 84.88669954 -5 88 C-9.04302825 91.21566913 -12.97617105 91.2949012 -18 92 C-19.11375 92.515625 -20.2275 93.03125 -21.375 93.5625 C-25.7750382 95.30734273 -29.33873455 95.2853836 -34 95 C-31.32190511 93.58187569 -28.76788324 92.54819171 -25.84765625 91.74609375 C-24.68266602 91.42415039 -24.68266602 91.42415039 -23.49414062 91.09570312 C-22.69169922 90.87849609 -21.88925781 90.66128906 -21.0625 90.4375 C-20.26392578 90.21642578 -19.46535156 89.99535156 -18.64257812 89.76757812 C-14.78119247 88.70865629 -10.94429992 87.70917716 -7 87 C-6.98541748 86.44465576 -6.97083496 85.88931152 -6.95581055 85.31713867 C-6.59606798 72.82530062 -5.71444075 60.50535671 -4.23388672 48.09716797 C-3.01671799 37.6868998 -2.13977828 27.26005042 -1.3125 16.8125 C-1.24597229 15.97330017 -1.17944458 15.13410034 -1.11090088 14.26947021 C-0.73507423 9.5133997 -0.36507318 4.75690749 0 0 Z " fill="#F3DA6E" transform="translate(382,256)"/>
<path d="M0 0 C0.66 0 1.32 0 2 0 C2.02714735 2.22909871 2.04646254 4.45829367 2.0625 6.6875 C2.07410156 7.92886719 2.08570313 9.17023438 2.09765625 10.44921875 C2.01365511 13.50350011 1.6093514 16.02997613 1 19 C0.76122225 21.8088284 0.63209725 24.62187154 0.5 27.4375 C0.43029428 28.91551951 0.35743363 30.39339398 0.28125 31.87109375 C0.25095703 32.52005615 0.22066406 33.16901855 0.18945312 33.83764648 C0 36 0 36 -0.47265625 38.73095703 C-1.09999548 42.61987936 -1.42134032 46.50913921 -1.71875 50.43359375 C-1.78155151 51.22975601 -1.84435303 52.02591827 -1.90905762 52.84620667 C-2.10850839 55.37645164 -2.30461773 57.90693783 -2.5 60.4375 C-2.69551568 62.96447981 -2.89185146 65.49138088 -3.09094238 68.01808167 C-3.21439974 69.58508531 -3.33585843 71.1522482 -3.45495605 72.71958923 C-3.80620795 77.18069391 -4.32098562 81.576571 -5 86 C-5.33 86 -5.66 86 -6 86 C-6.13339991 74.29045225 -5.76532392 62.68485635 -5 51 C-4.34 51 -3.68 51 -3 51 C-3.00523682 50.06615479 -3.01047363 49.13230957 -3.01586914 48.17016602 C-3.0328762 44.71687204 -3.04543302 41.26362233 -3.05493164 37.81030273 C-3.05997121 36.31355082 -3.06680287 34.81680384 -3.07543945 33.32006836 C-3.08752159 31.17300193 -3.09323191 29.02600038 -3.09765625 26.87890625 C-3.10289307 25.5854126 -3.10812988 24.29191895 -3.11352539 22.95922852 C-3 20 -3 20 -2 19 C-1.77428816 17.58879098 -1.60611651 16.16823957 -1.46484375 14.74609375 C-1.37783203 13.89208984 -1.29082031 13.03808594 -1.20117188 12.15820312 C-1.11416016 11.26037109 -1.02714844 10.36253906 -0.9375 9.4375 C-0.80118164 8.08495117 -0.80118164 8.08495117 -0.66210938 6.70507812 C-0.43746077 4.47041566 -0.21694231 2.23542161 0 0 Z " fill="#DCCB72" transform="translate(424,293)"/>
<path d="M0 0 C0 0.66 0 1.32 0 2 C-18.56806575 7.20097141 -37.14967654 12.35303629 -55.76443481 17.38461304 C-57.58560701 17.87751745 -59.40630907 18.37216229 -61.22653198 18.86856079 C-63.78513026 19.56575854 -66.34540933 20.25640366 -68.90625 20.9453125 C-69.66825211 21.15420609 -70.43025421 21.36309967 -71.21534729 21.57832336 C-74.6340923 22.49066695 -77.43201734 23 -81 23 C-81 22.34 -81 21.68 -81 21 C-79.92621094 20.73445313 -78.85242188 20.46890625 -77.74609375 20.1953125 C-76.3098799 19.83860579 -74.87368288 19.48183134 -73.4375 19.125 C-72.73302734 18.95097656 -72.02855469 18.77695312 -71.30273438 18.59765625 C-65.89502331 17.25195857 -60.49184627 15.90612592 -55.25 14 C-52.36411506 13.1120354 -49.65747411 12.56231484 -46.6875 12.0625 C-42.47329158 11.33376959 -38.64446274 10.27600104 -34.625 8.84765625 C-30.55527516 7.53347427 -26.39978709 6.57019848 -22.24682617 5.56005859 C-16.34442522 4.11409167 -10.52275073 2.46004008 -4.6953125 0.734375 C-2 0 -2 0 0 0 Z " fill="#F8D851" transform="translate(377,403)"/>
<path d="M0 0 C21.78 0 43.56 0 66 0 C66 29.90878378 66 29.90878378 64.5 41.625 C64.35691406 42.84316406 64.21382813 44.06132813 64.06640625 45.31640625 C63.72430686 48.21284777 63.36924594 51.1069188 63 54 C62.67 54 62.34 54 62 54 C61.7045721 26.5908558 61.7045721 26.5908558 64 22 C64.33 15.07 64.66 8.14 65 1 C43.55 1 22.1 1 0 1 C0 0.67 0 0.34 0 0 Z " fill="#CDB74F" transform="translate(384,15)"/>
<path d="M0 0 C1.65 0 3.3 0 5 0 C4.01 0.66 3.02 1.32 2 2 C1.52482134 4.09247425 1.52482134 4.09247425 1.56762695 6.54150391 C1.54783279 7.48232819 1.52803864 8.42315247 1.50764465 9.39248657 C1.50125473 10.41023163 1.49486481 11.42797668 1.48828125 12.4765625 C1.47033005 13.51694672 1.45237885 14.55733093 1.43388367 15.62924194 C1.37958318 18.96111971 1.34582147 22.29285266 1.3125 25.625 C1.27934439 27.88022858 1.24485639 30.13543799 1.20898438 32.390625 C1.12384566 37.92695346 1.05557978 43.46330021 1 49 C2.25296875 48.62746094 3.5059375 48.25492187 4.796875 47.87109375 C6.44776644 47.39271043 8.09881653 46.91487436 9.75 46.4375 C10.9875 46.0672168 10.9875 46.0672168 12.25 45.68945312 C13.04921875 45.46064453 13.8484375 45.23183594 14.671875 44.99609375 C15.4050293 44.78138428 16.13818359 44.5666748 16.89355469 44.34545898 C19.23869816 43.96085328 20.75825808 44.27121236 23 45 C20.28531003 47.71468997 17.393224 47.9016849 13.75 48.5625 C13.09386719 48.68818359 12.43773437 48.81386719 11.76171875 48.94335938 C9.84338583 49.30757567 7.92170457 49.65401409 6 50 C4.87078125 50.21527344 3.7415625 50.43054688 2.578125 50.65234375 C1.72734375 50.76707031 0.8765625 50.88179688 0 51 C-1.598167 49.401833 -1.12730981 47.72473502 -1.12939453 45.51196289 C-1.13254669 44.55749771 -1.13569885 43.60303253 -1.13894653 42.61964417 C-1.1369223 41.58113815 -1.13489807 40.54263214 -1.1328125 39.47265625 C-1.13376923 38.41340439 -1.13472595 37.35415253 -1.13571167 36.26280212 C-1.1363937 34.01740459 -1.13453784 31.7720051 -1.13037109 29.52661133 C-1.12502845 26.080847 -1.13031262 22.63521334 -1.13671875 19.18945312 C-1.13605787 17.01302054 -1.1347765 14.83658805 -1.1328125 12.66015625 C-1.13483673 11.62367447 -1.13686096 10.58719269 -1.13894653 9.51930237 C-1.13579437 8.56168503 -1.13264221 7.60406769 -1.12939453 6.61743164 C-1.12859894 5.77217422 -1.12780334 4.92691681 -1.12698364 4.05604553 C-1 2 -1 2 0 0 Z " fill="#F4DB72" transform="translate(266,322)"/>
<path d="M0 0 C-4.16643897 2.77762598 -8.47546929 3.49537436 -13.3125 4.625 C-14.71918945 4.96917969 -14.71918945 4.96917969 -16.15429688 5.3203125 C-20.85360274 6.43304454 -25.13331079 7.30977251 -30 7 C-30 4.69 -30 2.38 -30 0 C-9.46808511 -1.38297872 -9.46808511 -1.38297872 0 0 Z " fill="#FCFCF2" transform="translate(298,363)"/>
<path d="M0 0 C0 12.87 0 25.74 0 39 C-3.98225343 40.59290137 -6.23539461 41.29883157 -10.3125 41.625 C-11.19550781 41.69976562 -12.07851563 41.77453125 -12.98828125 41.8515625 C-13.65214844 41.90054688 -14.31601562 41.94953125 -15 42 C-12 40 -12 40 -9 40 C-9 39.34 -9 38.68 -9 38 C-6.69 38 -4.38 38 -2 38 C-2 26.45 -2 14.9 -2 3 C-6.95 3 -11.9 3 -17 3 C-17 2.67 -17 2.34 -17 2 C-15.10507994 1.66151348 -13.20901534 1.32943089 -11.3125 1 C-9.72888672 0.7215625 -9.72888672 0.7215625 -8.11328125 0.4375 C-5 0 -5 0 0 0 Z " fill="#F5D657" transform="translate(345,265)"/>
<path d="M0 0 C0.99 0 1.98 0 3 0 C2.45302137 17.08836696 0.82151363 34.0100587 -1 51 C-1.33 51 -1.66 51 -2 51 C-2.02469575 46.90658501 -2.04285793 42.81319879 -2.05493164 38.71972656 C-2.0599643 37.32681523 -2.06679098 35.9339092 -2.07543945 34.54101562 C-2.08755152 32.54038754 -2.09270412 30.53972112 -2.09765625 28.5390625 C-2.10289307 27.33459473 -2.10812988 26.13012695 -2.11352539 24.88916016 C-2 22 -2 22 -1 20 C-0.84876169 18.4804236 -0.75118307 16.95527498 -0.68359375 15.4296875 C-0.64169922 14.53378906 -0.59980469 13.63789062 -0.55664062 12.71484375 C-0.49766602 11.30912109 -0.49766602 11.30912109 -0.4375 9.875 C-0.39431641 8.93011719 -0.35113281 7.98523438 -0.30664062 7.01171875 C-0.20040928 4.67462908 -0.09836824 2.3374317 0 0 Z " fill="#DFCF79" transform="translate(441,96)"/>
<path d="M0 0 C-0.57818417 12.00654777 -1.21263189 24.00520067 -2 36 C-2.33 36 -2.66 36 -3 36 C-3 25.11 -3 14.22 -3 3 C-10.92 3.33 -18.84 3.66 -27 4 C-27 3.67 -27 3.34 -27 3 C-24.00114586 2.49212954 -21.00121874 1.99353375 -18 1.5 C-16.74123047 1.28537109 -16.74123047 1.28537109 -15.45703125 1.06640625 C-10.22817799 0.21519758 -5.29724973 -0.14714583 0 0 Z " fill="#F4EABE" transform="translate(386,212)"/>
<path d="M0 0 C-2.84294518 1.89529679 -4.58743569 2.55322291 -7.83203125 3.3671875 C-8.78932129 3.61130371 -9.74661133 3.85541992 -10.73291016 4.10693359 C-11.7491748 4.36039551 -12.76543945 4.61385742 -13.8125 4.875 C-21.68371199 6.87253923 -29.49312477 8.95425024 -37.2578125 11.3359375 C-39.95194656 11.98836313 -42.24082714 12.13138918 -45 12 C-45 10.68 -45 9.36 -45 8 C-44.33355469 8.04640625 -43.66710937 8.0928125 -42.98046875 8.140625 C-36.46085496 8.39593855 -31.60003389 7.45310758 -25.56640625 5.015625 C-22.09419706 3.64153917 -18.63546014 2.84827403 -15 2 C-13.2675 1.443125 -13.2675 1.443125 -11.5 0.875 C-7.46057979 -0.13485505 -4.14734913 -0.14552102 0 0 Z " fill="#F9DA57" transform="translate(296,426)"/>
<path d="M0 0 C4.93590803 4.93590803 4.4018449 13.78755461 4.625 20.375 C4.66294678 21.32584473 4.70089355 22.27668945 4.73999023 23.25634766 C5.0674611 32.17157491 5.09910702 41.08036836 5 50 C4.67 50 4.34 50 4 50 C2.14294299 33.3354028 0.53138992 16.76626813 0 0 Z " fill="#E0D181" transform="translate(71,259)"/>
<path d="M0 0 C11 2 11 2 15 4 C10.71 4 6.42 4 2 4 C1.67 18.19 1.34 32.38 1 47 C3.31 47 5.62 47 8 47 C10.65234375 47.65625 10.65234375 47.65625 12.9375 48.5 C13.70964844 48.7784375 14.48179687 49.056875 15.27734375 49.34375 C15.84582031 49.5603125 16.41429687 49.776875 17 50 C17 50.66 17 51.32 17 52 C10.67734974 51.42521361 6.26496991 50.0883233 0 48 C0 32.16 0 16.32 0 0 Z " fill="#F0E5B1" transform="translate(117,292)"/>
<path d="M0 0 C0.33 0 0.66 0 1 0 C1.18175781 1.64548828 1.18175781 1.64548828 1.3671875 3.32421875 C1.53609363 4.77868823 1.70538481 6.23311304 1.875 7.6875 C1.95363281 8.40873047 2.03226563 9.12996094 2.11328125 9.87304688 C2.19707031 10.57880859 2.28085937 11.28457031 2.3671875 12.01171875 C2.44050293 12.65584717 2.51381836 13.29997559 2.58935547 13.96362305 C2.94137399 16.094785 2.94137399 16.094785 4.02734375 18.29492188 C5.26542189 21.73817132 5.22540068 24.61381726 5.1953125 28.26953125 C5.1924826 28.95053391 5.18965271 29.63153656 5.18673706 30.33317566 C5.17560525 32.49313455 5.15051457 34.65266794 5.125 36.8125 C5.11496111 38.28319711 5.10583685 39.75390076 5.09765625 41.22460938 C5.07568913 44.81654286 5.0412082 48.40822985 5 52 C4.67 52 4.34 52 4 52 C-0.50162338 13.20941558 -0.50162338 13.20941558 0 0 Z " fill="#DFCE77" transform="translate(54,69)"/>
<path d="M0 0 C0.33 0 0.66 0 1 0 C1.22918793 9.86675244 0.5243473 19.51703574 -0.5 29.3125 C-0.64512297 30.74668504 -0.78965739 32.18092976 -0.93359375 33.61523438 C-1.28230839 37.07753458 -1.63888232 40.53896874 -2 44 C-4.475 44.495 -4.475 44.495 -7 45 C-6.79503906 44.23816406 -6.59007812 43.47632813 -6.37890625 42.69140625 C-4.74489496 36.42899933 -3.63282289 30.43369933 -3 24 C-2.67 23.67 -2.34 23.34 -2 23 C-1.77246643 21.2962092 -1.60526762 19.58426501 -1.46484375 17.87109375 C-1.37783203 16.83662109 -1.29082031 15.80214844 -1.20117188 14.73632812 C-1.11416016 13.64771484 -1.02714844 12.55910156 -0.9375 11.4375 C-0.84662109 10.34501953 -0.75574219 9.25253906 -0.66210938 8.12695312 C-0.43737189 5.41827508 -0.21685911 2.70931834 0 0 Z " fill="#E3D68C" transform="translate(417,381)"/>
<path d="M0 0 C1.85625 0.0309375 1.85625 0.0309375 3.75 0.0625 C3.75 0.3925 3.75 0.7225 3.75 1.0625 C-1.23025616 2.68649657 -5.88929252 3.4244071 -11.11328125 3.81640625 C-13.29960167 3.94482638 -13.29960167 3.94482638 -15.25 5.0625 C-17.54809536 5.37119938 -19.84720129 5.57133648 -22.15625 5.78125 C-24.30443933 5.954655 -24.30443933 5.954655 -26.25 7.0625 C-28.93876019 7.46245673 -31.61317753 7.81566975 -34.3125 8.125 C-35.07876709 8.21442871 -35.84503418 8.30385742 -36.63452148 8.39599609 C-41.87308339 8.97910751 -46.97583721 9.25428774 -52.25 9.0625 C-52.25 8.7325 -52.25 8.4025 -52.25 8.0625 C-51.70764709 7.97702408 -51.16529419 7.89154816 -50.60650635 7.80348206 C-44.9609627 6.91337328 -39.31581807 6.02076645 -33.67089844 5.12670898 C-31.56422896 4.79338547 -29.45745863 4.46069871 -27.35058594 4.12866211 C-24.32199787 3.65125273 -21.29378005 3.17155354 -18.265625 2.69140625 C-17.32382385 2.54345108 -16.38202271 2.39549591 -15.41168213 2.24305725 C-14.53107117 2.10298752 -13.65046021 1.96291779 -12.74316406 1.81860352 C-11.58400482 1.63540306 -11.58400482 1.63540306 -10.40142822 1.44850159 C-8.95869322 1.18965121 -7.52428697 0.87958636 -6.10296631 0.52134705 C-4.0069902 0.00232388 -2.15546326 -0.03592439 0 0 Z " fill="#F2DB71" transform="translate(324.25,267.9375)"/>
<path d="M0 0 C7.47627165 0.23436588 13.68101609 0.92279699 20.51171875 4.01953125 C24.13662271 5.4478686 27.80842623 5.96579248 31.65234375 6.5078125 C34 7 34 7 37 9 C37 9.66 37 10.32 37 11 C29.20962962 9.58436836 21.62148749 7.63544609 14 5.5 C12.86949219 5.19191406 11.73898438 4.88382812 10.57421875 4.56640625 C9.49785156 4.26605469 8.42148438 3.96570313 7.3125 3.65625 C6.33925781 3.38619141 5.36601562 3.11613281 4.36328125 2.83789062 C2 2 2 2 0 0 Z " fill="#DDCE7A" transform="translate(169,448)"/>
<path d="M0 0 C0.33 0 0.66 0 1 0 C1.19214323 4.80509958 1.37088308 9.61043783 1.53710938 14.41650391 C1.59558 16.05205718 1.65773919 17.68748287 1.72363281 19.32275391 C1.8176061 21.67066214 1.89838991 24.01870678 1.9765625 26.3671875 C2.00875885 27.10057343 2.0409552 27.83395935 2.0741272 28.58956909 C2.12756428 30.39242355 2.07280193 32.19782365 2 34 C1.34 34.66 0.68 35.32 0 36 C-0.46290221 38.66242821 -0.46290221 38.66242821 -0.625 41.625 C-0.69976562 42.62789062 -0.77453125 43.63078125 -0.8515625 44.6640625 C-0.90054687 45.43492187 -0.94953125 46.20578125 -1 47 C-1.33 47 -1.66 47 -2 47 C-2.15069741 36.49094898 -1.68702058 26.10552207 -1 15.625 C-0.90324408 14.09898375 -0.80688783 12.57294211 -0.7109375 11.046875 C-0.47854496 7.36428036 -0.24081623 3.68205456 0 0 Z " fill="#F4DA6D" transform="translate(394,103)"/>
<path d="M0 0 C3.3 0 6.6 0 10 0 C10 8.25 10 16.5 10 25 C9.67 25 9.34 25 9 25 C9 17.41 9 9.82 9 2 C6.36257813 2.45052734 6.36257813 2.45052734 3.671875 2.91015625 C1.36465368 3.29469314 -0.94264192 3.67878458 -3.25 4.0625 C-4.40886719 4.26166016 -5.56773437 4.46082031 -6.76171875 4.66601562 C-7.87675781 4.84970703 -8.99179687 5.03339844 -10.140625 5.22265625 C-11.68024902 5.48187866 -11.68024902 5.48187866 -13.25097656 5.74633789 C-15.85070308 5.98622385 -17.54846267 5.82316264 -20 5 C-18.1650111 3.1650111 -15.2895435 3.31535409 -12.8125 2.9375 C-11.68457031 2.76089844 -10.55664062 2.58429688 -9.39453125 2.40234375 C-6.22235119 2.02635463 -3.19013918 1.92738682 0 2 C0 1.34 0 0.68 0 0 Z " fill="#F5E9B2" transform="translate(336,263)"/>
<path d="M0 0 C1.60294922 0.01353516 1.60294922 0.01353516 3.23828125 0.02734375 C4.04652344 0.03894531 4.85476563 0.05054688 5.6875 0.0625 C5.6875 0.3925 5.6875 0.7225 5.6875 1.0625 C-9.64463707 3.5367565 -24.77351583 5.68396202 -40.3125 6.0625 C-37.10869983 3.92663322 -36.29310033 3.83117825 -32.625 3.9375 C-31.41263672 3.96457031 -31.41263672 3.96457031 -30.17578125 3.9921875 C-29.25345703 4.02699219 -29.25345703 4.02699219 -28.3125 4.0625 C-28.3125 3.4025 -28.3125 2.7425 -28.3125 2.0625 C-27.14332031 2.00191406 -25.97414063 1.94132813 -24.76953125 1.87890625 C-23.22134386 1.79445966 -21.67316732 1.70981375 -20.125 1.625 C-19.35607422 1.58568359 -18.58714844 1.54636719 -17.79492188 1.50585938 C-14.68755037 1.33248672 -11.7119897 1.14239794 -8.65625 0.53125 C-5.73317486 -0.05336503 -2.97783405 -0.03272345 0 0 Z " fill="#F3D968" transform="translate(380.3125,210.9375)"/>
<path d="M0 0 C1.27230469 0.00902344 2.54460937 0.01804687 3.85546875 0.02734375 C5.31919922 0.04474609 5.31919922 0.04474609 6.8125 0.0625 C3.26562688 2.42708208 -0.32369899 3.41294769 -4.375 4.5625 C-5.10525391 4.77519531 -5.83550781 4.98789062 -6.58789062 5.20703125 C-8.78369179 5.84107127 -10.98464836 6.45346186 -13.1875 7.0625 C-13.91146973 7.27261719 -14.63543945 7.48273438 -15.38134766 7.69921875 C-19.07132664 8.71855941 -21.53610737 9.19546489 -25.1875 8.0625 C-24.1975 8.0625 -23.2075 8.0625 -22.1875 8.0625 C-22.1875 7.4025 -22.1875 6.7425 -22.1875 6.0625 C-20.8675 6.0625 -19.5475 6.0625 -18.1875 6.0625 C-18.1875 5.4025 -18.1875 4.7425 -18.1875 4.0625 C-15.5475 4.0625 -12.9075 4.0625 -10.1875 4.0625 C-10.1875 3.0725 -10.1875 2.0825 -10.1875 1.0625 C-6.62704823 -0.12431726 -3.74941663 -0.03439832 0 0 Z " fill="#E0D283" transform="translate(342.1875,442.9375)"/>
<path d="M0 0 C0.33 0 0.66 0 1 0 C1.24851332 8.82337326 0.47132003 17.42374312 -0.5 26.1875 C-0.64506343 27.534448 -0.78959797 28.88145307 -0.93359375 30.22851562 C-1.28389034 33.4862739 -1.6394653 36.74336164 -2 40 C-2.33 40 -2.66 40 -3 40 C-3 31.09 -3 22.18 -3 13 C-2.34 13 -1.68 13 -1 13 C-1.01160156 12.31292969 -1.02320313 11.62585938 -1.03515625 10.91796875 C-1.04417969 10.01691406 -1.05320312 9.11585938 -1.0625 8.1875 C-1.07410156 7.29417969 -1.08570313 6.40085938 -1.09765625 5.48046875 C-1 3 -1 3 0 0 Z " fill="#E0D282" transform="translate(434,195)"/>
<path d="M0 0 C0.33 0 0.66 0 1 0 C1.2417432 8.66358386 0.48986692 17.08635907 -0.5 25.6875 C-0.64308594 26.97333984 -0.78617187 28.25917969 -0.93359375 29.58398438 C-1.28370323 32.72329938 -1.63927566 35.86189009 -2 39 C-2.33 39 -2.66 39 -3 39 C-3.13339991 27.29045225 -2.76532392 15.68485635 -2 4 C-1.34 4 -0.68 4 0 4 C0 2.68 0 1.36 0 0 Z " fill="#E3D489" transform="translate(421,340)"/>
<path d="M0 0 C0.33 0 0.66 0 1 0 C1.02892385 4.12498538 1.04677267 8.24994485 1.0625 12.375 C1.07087891 13.550625 1.07925781 14.72625 1.08789062 15.9375 C1.09111328 17.05898438 1.09433594 18.18046875 1.09765625 19.3359375 C1.10289307 20.37282715 1.10812988 21.4097168 1.11352539 22.47802734 C1 25 1 25 0 27 C-0.15222973 28.66565749 -0.24917215 30.33656496 -0.31640625 32.0078125 C-0.35830078 32.99394531 -0.40019531 33.98007812 -0.44335938 34.99609375 C-0.48267578 36.02863281 -0.52199219 37.06117188 -0.5625 38.125 C-0.60568359 39.16527344 -0.64886719 40.20554687 -0.69335938 41.27734375 C-0.7996288 43.85142528 -0.90166583 46.42560508 -1 49 C-1.33 49 -1.66 49 -2 49 C-2.27288074 32.54319249 -1.66436574 16.37585385 0 0 Z " fill="#F4D860" transform="translate(382,256)"/>
<path d="M0 0 C0.33 0 0.66 0 1 0 C1.13277344 0.99902344 1.26554687 1.99804688 1.40234375 3.02734375 C1.57894531 4.31769531 1.75554687 5.60804688 1.9375 6.9375 C2.11152344 8.22527344 2.28554687 9.51304687 2.46484375 10.83984375 C2.66162423 13.85466313 2.66162423 13.85466313 4 15 C4.08669432 16.4887186 4.10703494 17.981445 4.09765625 19.47265625 C4.09443359 20.37177734 4.09121094 21.27089844 4.08789062 22.19726562 C4.07951172 23.14279297 4.07113281 24.08832031 4.0625 25.0625 C4.05798828 26.01189453 4.05347656 26.96128906 4.04882812 27.93945312 C4.0370011 30.29303065 4.02052025 32.64648477 4 35 C4.66 35.33 5.32 35.66 6 36 C5.01 36 4.02 36 3 36 C1.52890372 31.58671117 1.34987197 27.11856605 0.9375 22.5 C0.84662109 21.55640625 0.75574219 20.6128125 0.66210938 19.640625 C0.06581644 13.0769193 -0.10847663 6.58895078 0 0 Z " fill="#E6D994" transform="translate(83,390)"/>
<path d="M0 0 C0.66 0 1.32 0 2 0 C2.22786458 2.05078125 2.45572917 4.1015625 2.68359375 6.15234375 C2.81886614 8.01140229 2.81886614 8.01140229 4 9 C4.08713831 10.70772358 4.10700007 12.41898649 4.09765625 14.12890625 C4.09282227 15.68061523 4.09282227 15.68061523 4.08789062 17.26367188 C4.07951172 18.35228516 4.07113281 19.44089844 4.0625 20.5625 C4.05798828 21.65498047 4.05347656 22.74746094 4.04882812 23.87304688 C4.03699826 26.58208495 4.02051543 29.29101599 4 32 C3.67 32 3.34 32 3 32 C2.90912109 30.93458984 2.90912109 30.93458984 2.81640625 29.84765625 C2.73261719 28.92855469 2.64882812 28.00945312 2.5625 27.0625 C2.48128906 26.14597656 2.40007812 25.22945313 2.31640625 24.28515625 C2.23955024 22.03840268 2.23955024 22.03840268 1 21 C0.84313751 19.44051458 0.74923361 17.87457332 0.68359375 16.30859375 C0.64169922 15.36435547 0.59980469 14.42011719 0.55664062 13.44726562 C0.51732422 12.45404297 0.47800781 11.46082031 0.4375 10.4375 C0.39431641 9.44041016 0.35113281 8.44332031 0.30664062 7.41601562 C0.20019702 4.9441585 0.09818072 2.4721969 0 0 Z " fill="#D9C768" transform="translate(81,368)"/>
<path d="M0 0 C0.33 0 0.66 0 1 0 C3.69236042 13.12525706 4.35635139 25.61702554 4 39 C3.67 39 3.34 39 3 39 C1.99076141 33.62580452 1.66764684 28.28112304 1.39453125 22.83398438 C1.23698679 19.9737375 1.04237224 17.20903638 0.47265625 14.3984375 C-0.10751827 11.45441142 -0.09544282 8.68529625 -0.0625 5.6875 C-0.05347656 4.61886719 -0.04445313 3.55023438 -0.03515625 2.44921875 C-0.02355469 1.64097656 -0.01195313 0.83273438 0 0 Z " fill="#E4D78C" transform="translate(65,192)"/>
<path d="M0 0 C0.33 0 0.66 0 1 0 C1.21307427 9.38611891 0.58715801 18.49330315 -0.5 27.8125 C-0.64308594 29.08931641 -0.78617187 30.36613281 -0.93359375 31.68164062 C-1.28268388 34.78854278 -1.63823764 37.8945524 -2 41 C-2.33 41 -2.66 41 -3 41 C-3.2954279 13.5908558 -3.2954279 13.5908558 -1 9 C-0.77532169 7.46331135 -0.59203195 5.92031946 -0.4375 4.375 C-0.35371094 3.55773437 -0.26992188 2.74046875 -0.18359375 1.8984375 C-0.12300781 1.27195312 -0.06242187 0.64546875 0 0 Z " fill="#E7D993" transform="translate(449,28)"/>
<path d="M0 0 C0.99 0.33 1.98 0.66 3 1 C3 10.9 3 20.8 3 31 C2.67 31 2.34 31 2 31 C-0.38776806 9.39260417 -0.38776806 9.39260417 0 0 Z " fill="#E2D383" transform="translate(78,336)"/>
<path d="M0 0 C1.89551022 -0.05441656 3.7914792 -0.09298035 5.6875 -0.125 C6.74324219 -0.14820313 7.79898438 -0.17140625 8.88671875 -0.1953125 C12.05522823 0.00346476 14.18862338 0.55125457 17 2 C17.33 2.66 17.66 3.32 18 4 C20.32156597 4.40729228 22.6568787 4.74438677 25 5 C25 5.33 25 5.66 25 6 C16.00974338 6.80270148 8.38661065 3.88128955 0 1 C0 0.67 0 0.34 0 0 Z " fill="#DDCC7A" transform="translate(229,465)"/>
<path d="M0 0 C0.33 0 0.66 0 1 0 C1 4.62 1 9.24 1 14 C-6.71317496 17.37451404 -14.75224337 18.58867271 -23 20 C-23 19.34 -23 18.68 -23 18 C-22.030625 17.896875 -21.06125 17.79375 -20.0625 17.6875 C-16.23639015 17.15091142 -12.7456477 16.00911108 -9.11328125 14.71875 C-7 14 -7 14 -4.85546875 13.59375 C-2.6077712 13.08701291 -2.6077712 13.08701291 -1 10 C-0.54398739 7.49103314 -0.54398739 7.49103314 -0.375 4.8125 C-0.30023438 3.91144531 -0.22546875 3.01039063 -0.1484375 2.08203125 C-0.09945313 1.39496094 -0.05046875 0.70789063 0 0 Z " fill="#F6E9C2" transform="translate(375,329)"/>
<path d="M0 0 C5.5621732 -0.34054122 8.96109261 0.75048777 14 3 C16.32694964 3.37531446 18.65976685 3.71917202 21 4 C21.33 4.33 21.66 4.66 22 5 C24.32817964 5.36760731 26.6618385 5.70241581 29 6 C29 6.66 29 7.32 29 8 C22.86282032 7.36927368 17.08239308 6.14897968 11.125 4.5625 C10.27164063 4.34529297 9.41828125 4.12808594 8.5390625 3.90429688 C7.724375 3.68966797 6.9096875 3.47503906 6.0703125 3.25390625 C5.33570801 3.06127197 4.60110352 2.8686377 3.84423828 2.67016602 C2 2 2 2 0 0 Z " fill="#EEE5C2" transform="translate(147,347)"/>
<path d="M0 0 C1.49080078 0.02707031 1.49080078 0.02707031 3.01171875 0.0546875 C3.77097656 0.07789063 4.53023438 0.10109375 5.3125 0.125 C2.63391077 2.80358923 -0.31704961 3.3602756 -3.875 4.3125 C-4.52275391 4.50263672 -5.17050781 4.69277344 -5.83789062 4.88867188 C-10.58624083 6.17418926 -13.9697431 6.08568461 -18.6875 5.125 C-18.6875 4.795 -18.6875 4.465 -18.6875 4.125 C-18.00042969 4.00382812 -17.31335938 3.88265625 -16.60546875 3.7578125 C-15.25388672 3.50644531 -15.25388672 3.50644531 -13.875 3.25 C-12.98167969 3.08757812 -12.08835937 2.92515625 -11.16796875 2.7578125 C-0.32779255 -0.00771277 -0.32779255 -0.00771277 0 0 Z " fill="#D5C15B" transform="translate(371.6875,434.875)"/>
<path d="M0 0 C3.48748877 3.48748877 3.05395541 8.0317945 3.09765625 12.7421875 C3.09107562 14.45315248 3.07924823 16.16410434 3.0625 17.875 C3.05798828 18.75414063 3.05347656 19.63328125 3.04882812 20.5390625 C3.03712337 22.69273803 3.01919069 24.84637817 3 27 C2.67 27 2.34 27 2 27 C1.66027199 24.18814406 1.32809788 21.37571764 1 18.5625 C0.90460937 17.77939453 0.80921875 16.99628906 0.7109375 16.18945312 C0.08488869 10.75624381 -0.08759571 5.46925737 0 0 Z " fill="#E5D990" transform="translate(56,94)"/>
<path d="M0 0 C6.40558519 -0.34939556 11.03240317 0.78605176 17 3 C19.41439762 3.75891697 21.83078344 4.51050116 24.25 5.25390625 C26 6 26 6 27 8 C17.77622123 6.38949895 8.94445024 3.71861481 0 1 C0 0.67 0 0.34 0 0 Z " fill="#E1D58B" transform="translate(115,433)"/>
<path d="M0 0 C-3.4334517 1.03480605 -6.87229026 2.05040959 -10.3125 3.0625 C-11.28896484 3.35705078 -12.26542969 3.65160156 -13.27148438 3.95507812 C-14.20927734 4.22900391 -15.14707031 4.50292969 -16.11328125 4.78515625 C-16.97735596 5.04176025 -17.84143066 5.29836426 -18.73168945 5.56274414 C-21 6 -21 6 -24 5 C-21.60236815 2.60236815 -20.66726502 2.65719414 -17.375 2.375 C-16.55773437 2.30023438 -15.74046875 2.22546875 -14.8984375 2.1484375 C-14.27195312 2.09945313 -13.64546875 2.05046875 -13 2 C-13 1.34 -13 0.68 -13 0 C-11.58456585 -0.19658808 -10.16755969 -0.38187546 -8.75 -0.5625 C-7.96109375 -0.66691406 -7.1721875 -0.77132813 -6.359375 -0.87890625 C-3.98020513 -1.00101596 -2.27793584 -0.6241208 0 0 Z " fill="#E4D689" transform="translate(317,453)"/>
<path d="M0 0 C0.33 0 0.66 0 1 0 C1 5.28 1 10.56 1 16 C-2.98225343 17.59290137 -5.23539461 18.29883157 -9.3125 18.625 C-10.19550781 18.69976562 -11.07851563 18.77453125 -11.98828125 18.8515625 C-12.65214844 18.90054687 -13.31601562 18.94953125 -14 19 C-11 17 -11 17 -8 17 C-8 16.34 -8 15.68 -8 15 C-5.36 15 -2.72 15 0 15 C0 10.05 0 5.1 0 0 Z " fill="#F2DE8D" transform="translate(344,288)"/>
<path d="M0 0 C0 0.33 0 0.66 0 1 C-4.87582751 2.58994375 -9.44833731 3.344009 -14.5546875 3.78125 C-17.7263824 4.0649799 -20.85253019 4.5210372 -24 5 C-24 4.34 -24 3.68 -24 3 C-21.50159546 2.49061655 -19.00176612 1.99236886 -16.5 1.5 C-15.80390625 1.35691406 -15.1078125 1.21382813 -14.390625 1.06640625 C-9.50912797 0.11722627 -4.97281701 -0.13440046 0 0 Z " fill="#F3D962" transform="translate(328,268)"/>
<path d="M0 0 C-2.4136396 2.4136396 -4.09835899 2.75532852 -7.375 3.625 C-8.33148438 3.88539063 -9.28796875 4.14578125 -10.2734375 4.4140625 C-13 5 -13 5 -17 5 C-17 4.34 -17 3.68 -17 3 C-11.60607057 -0.11188236 -6.10318684 -0.12206374 0 0 Z " fill="#E1D387" transform="translate(409,426)"/>
<path d="M0 0 C13.81776765 0.41002278 13.81776765 0.41002278 19 5 C14.82893888 6.39035371 11.81793141 4.90230806 7.8125 3.5625 C6.68811523 3.19801758 6.68811523 3.19801758 5.54101562 2.82617188 C3.69142499 2.22534944 1.84535673 1.61370322 0 1 C0 0.67 0 0.34 0 0 Z " fill="#E1D486" transform="translate(169,448)"/>
<path d="M0 0 C11.68828161 -0.20426123 11.68828161 -0.20426123 15 1 C16.8125 3.0625 16.8125 3.0625 18 5 C13.80716882 4.35155914 9.73500079 3.48783354 5.625 2.4375 C4.56539062 2.16808594 3.50578125 1.89867187 2.4140625 1.62109375 C1.21910156 1.31365234 1.21910156 1.31365234 0 1 C0 0.67 0 0.34 0 0 Z " fill="#E4D58B" transform="translate(150,443)"/>
<path d="M0 0 C5.28 0.66 10.56 1.32 16 2 C16 2.66 16 3.32 16 4 C16.99 4.33 17.98 4.66 19 5 C14.82893888 6.39035371 11.81793141 4.90230806 7.8125 3.5625 C6.68811523 3.19801758 6.68811523 3.19801758 5.54101562 2.82617188 C3.69142499 2.22534944 1.84535673 1.61370322 0 1 C0 0.67 0 0.34 0 0 Z " fill="#E3D68B" transform="translate(208,459)"/>
<path d="M0 0 C-2.72528885 2.72528885 -5.65644017 2.94188491 -9.3125 3.625 C-9.97701172 3.7590625 -10.64152344 3.893125 -11.32617188 4.03125 C-14.93008074 4.72993065 -18.32959742 5.15618734 -22 5 C-18.47893171 3.05460977 -14.8524463 1.94293181 -11 0.8125 C-9.783125 0.44769531 -8.56625 0.08289063 -7.3125 -0.29296875 C-4.27118248 -0.94211789 -2.83488355 -1.11269179 0 0 Z " fill="#F4DD6E" transform="translate(289,367)"/>
<path d="M0 0 C-3.41211416 2.27474277 -5.6568529 2.56629644 -9.6875 3.125 C-10.86699219 3.29257812 -12.04648437 3.46015625 -13.26171875 3.6328125 C-14.16535156 3.75398438 -15.06898438 3.87515625 -16 4 C-15.67 3.01 -15.34 2.02 -15 1 C-10.03926578 -0.32286246 -5.08888488 -0.08893197 0 0 Z " fill="#FDF9DA" transform="translate(298,363)"/>
<path d="M0 0 C0.33 0 0.66 0 1 0 C1.05399736 1.45792884 1.09279177 2.91642712 1.125 4.375 C1.14820313 5.18710938 1.17140625 5.99921875 1.1953125 6.8359375 C1 9 1 9 -1 11 C-1.46290221 13.66242821 -1.46290221 13.66242821 -1.625 16.625 C-1.69976562 17.62789062 -1.77453125 18.63078125 -1.8515625 19.6640625 C-1.90054687 20.43492187 -1.94953125 21.20578125 -2 22 C-2.33 22 -2.66 22 -3 22 C-3.05398987 19.72942623 -3.09278742 17.45848712 -3.125 15.1875 C-3.14820313 13.92292969 -3.17140625 12.65835938 -3.1953125 11.35546875 C-3 8 -3 8 -1 5 C-0.61500109 3.34450469 -0.27206865 1.6777567 0 0 Z " fill="#F6D854" transform="translate(395,128)"/>
<path d="M0 0 C-2.93163286 1.55403686 -5.83365224 2.69801632 -9 3.6875 C-9.845625 3.95949219 -10.69125 4.23148437 -11.5625 4.51171875 C-14.1232068 5.02468085 -15.55828998 4.84216387 -18 4 C-12.09843063 0.68936352 -6.71615769 -0.20351993 0 0 Z " fill="#F4D75C" transform="translate(330,306)"/>
<path d="M0 0 C3.63 0 7.26 0 11 0 C7.90576832 3.09423168 4.4476188 3.93706005 0.125 4.125 C-0.57625 4.08375 -1.2775 4.0425 -2 4 C-1.34 2.68 -0.68 1.36 0 0 Z " fill="#DECD76" transform="translate(280,459)"/>
<path d="M0 0 C5.53657294 -0.42589023 9.89665983 1.094753 15 3 C15 3.66 15 4.32 15 5 C9.33895411 4.50341703 5.12325529 3.45489316 0 1 C0 0.67 0 0.34 0 0 Z " fill="#F0E3C0" transform="translate(119,339)"/>
<path d="M0 0 C6.78661213 0.78914095 13.36149367 2.41274811 20 4 C20 4.33 20 4.66 20 5 C17.79095369 4.91224337 15.58271407 4.80405633 13.375 4.6875 C12.14523438 4.62949219 10.91546875 4.57148438 9.6484375 4.51171875 C5.8576575 3.98003547 3.29970329 2.89352204 0 1 C0 0.67 0 0.34 0 0 Z " fill="#EDE4C0" transform="translate(171,307)"/>
<path d="M0 0 C9.01531729 -0.63019694 9.01531729 -0.63019694 13.125 2 C13.74375 2.66 14.3625 3.32 15 4 C9.76119922 3.44854729 5.02649303 2.57077907 0 1 C0 0.67 0 0.34 0 0 Z " fill="#CCBA4D" transform="translate(117,291)"/>
<path d="M0 0 C3.96 0 7.92 0 12 0 C11.67 0.66 11.34 1.32 11 2 C11.66 2.66 12.32 3.32 13 4 C8.51474352 3.343621 4.33085971 2.29925791 0 1 C0 0.67 0 0.34 0 0 Z " fill="#E3D485" transform="translate(229,465)"/>
<path d="M0 0 C1.27230469 0.00902344 2.54460937 0.01804687 3.85546875 0.02734375 C5.31919922 0.04474609 5.31919922 0.04474609 6.8125 0.0625 C3.54771492 2.23902339 2.13409941 2.38358176 -1.6875 2.625 C-4.81032857 2.83067016 -7.20402836 3.06800945 -10.1875 4.0625 C-10.1875 3.0725 -10.1875 2.0825 -10.1875 1.0625 C-6.62704823 -0.12431726 -3.74941663 -0.03439832 0 0 Z " fill="#D7C666" transform="translate(342.1875,442.9375)"/>
<path d="M0 0 C1.93922422 0.45098238 3.87633594 0.91105559 5.8125 1.375 C6.89144531 1.63023437 7.97039062 1.88546875 9.08203125 2.1484375 C12 3 12 3 15 5 C9.158256 5.35050464 5.1468192 5.16727335 0 2 C0 1.34 0 0.68 0 0 Z " fill="#EEE5C8" transform="translate(134,296)"/>
<path d="M0 0 C2.64 0 5.28 0 8 0 C3.8626344 2.41346327 -1.45467653 4.5081809 -6.25 3.55078125 C-6.8275 3.36902344 -7.405 3.18726563 -8 3 C-7 2 -7 2 -3.4375 1.9375 C-2.303125 1.958125 -1.16875 1.97875 0 2 C0 1.34 0 0.68 0 0 Z " fill="#F4D75A" transform="translate(304,311)"/>
<path d="M0 0 C-0.66 0 -1.32 0 -2 0 C-2 0.66 -2 1.32 -2 2 C-5.9813783 3.3271261 -9.85045227 3.06915913 -14 3 C-4.91666667 -1.89102564 -4.91666667 -1.89102564 0 0 Z " fill="#F5E8B7" transform="translate(330,308)"/>
<path d="M0 0 C3.96 0.33 7.92 0.66 12 1 C12.33 1.99 12.66 2.98 13 4 C8.428721 3.45144652 4.32564205 2.58255197 0 1 C0 0.67 0 0.34 0 0 Z " fill="#E5D98A" transform="translate(91,426)"/>
<path d="M0 0 C-4.86628419 2.62030687 -9.4185702 4.3283194 -15 4 C-9.84599161 0.56399441 -6.22297833 -0.24403837 0 0 Z " fill="#F4EBC2" transform="translate(320,357)"/>
<path d="M0 0 C3.3 0 6.6 0 10 0 C7.57869669 2.42130331 6.19888623 2.52840504 2.875 3.125 C1.50988281 3.37636719 1.50988281 3.37636719 0.1171875 3.6328125 C-0.58148438 3.75398438 -1.28015625 3.87515625 -2 4 C-1.34 3.67 -0.68 3.34 0 3 C0 2.01 0 1.02 0 0 Z " fill="#E9DD9A" transform="translate(268,463)"/>
<path d="M0 0 C-1.4117783 0.53394179 -2.82970244 1.05165104 -4.25 1.5625 C-5.03890625 1.85253906 -5.8278125 2.14257812 -6.640625 2.44140625 C-9.19103452 3.04522837 -10.55322229 2.8473932 -13 2 C-8.78313245 -0.81124504 -4.85593084 -1.61864361 0 0 Z " fill="#ECE2A1" transform="translate(377,436)"/>
<path d="M0 0 C-0.33 0.99 -0.66 1.98 -1 3 C-3.97 3 -6.94 3 -10 3 C-4 0 -4 0 0 0 Z " fill="#F6D762" transform="translate(320,358)"/>
<path d="M0 0 C-2.76223278 2.76223278 -5.20706617 2.57856291 -9 3 C-9.33 2.34 -9.66 1.68 -10 1 C-6.78548731 -0.60725635 -3.56387464 -0.05748185 0 0 Z " fill="#E0CE77" transform="translate(263,467)"/>
<path d="M0 0 C2.3125 -0.25 2.3125 -0.25 5 0 C6.8125 2 6.8125 2 8 4 C5.125 3.6875 5.125 3.6875 2 3 C1.34 2.01 0.68 1.02 0 0 Z " fill="#DACB70" transform="translate(160,444)"/>
<path d="M0 0 C1.98 1.65 3.96 3.3 6 5 C2.25 6.125 2.25 6.125 0 5 C0 3.35 0 1.7 0 0 Z " fill="#CDBA4E" transform="translate(87,420)"/>
<path d="M0 0 C1.258125 0.12375 2.51625 0.2475 3.8125 0.375 C4.87404297 0.47941406 4.87404297 0.47941406 5.95703125 0.5859375 C8 1 8 1 11 3 C4.6 3.36923077 4.6 3.36923077 1.5625 1.5 C1.046875 1.005 0.53125 0.51 0 0 Z " fill="#EFE4C3" transform="translate(160,304)"/>
</svg>
